<?xml version="1.0" encoding="UTF-8"?>
<svg id="_레이어_1" xmlns="http://www.w3.org/2000/svg" version="1.1" viewBox="0 0 168.4 41">
  <!-- Generator: Adobe Illustrator 29.3.1, SVG Export Plug-In . SVG Version: 2.1.0 Build 151)  -->
  <defs>
    <style>
      .st0 {
        fill: #ff0e38;
      }
    </style>
  </defs>
  <path class="st0" d="M9.8,38.2c-3,0-4.8,0-6.2-.2-2.2-.3-3.5-1.7-3.5-4-.2-9.5-.1-18.8.2-28.6,0-1.2.5-1.9,1.3-2,3.2-.3,7.6-.5,11-.3,9.9.6,16.1,6.5,15.9,17.5-.2,11.8-9,17.6-18.7,17.6h0ZM7.6,31c1.1.1,2.2.1,2.9.1,5.7-.4,10.3-4.1,10.3-10.8s-3.4-9.8-8.5-10.1c-1.4-.1-2.6,0-4.3.1,0,3.3-.4,19.8-.4,20.6Z"/>
  <path class="st0" d="M54,38.2c-.4,0-.8-.2-.9-.5-.3-1.1-.6-2-1.1-3.4-1.5,2.5-5,4.2-8.1,4.4-6.8.4-12.9-4.9-12.8-13.1.1-8.8,6.4-13.8,13.2-13.4,3.7.2,6.2,1.6,7.1,3.8l.2-2.3c0-.8.3-1.2.8-1.3,2-.3,3.5-.3,5.5,0,.7.1,1.1.8,1.2,1.9,0,2.3,0,4.7,0,7.1,0,6-.1,11.7-.3,15.2,0,1.1-.7,1.6-1.7,1.6,0,0-3.3,0-3.3,0ZM51.8,25.3c0-3.6-2.3-6-6.1-6.3-4-.2-7.2,2.5-7.2,6.5s3.3,7.1,7.8,6.4c3.1-.5,5.6-2.9,5.6-6.6h0Z"/>
  <path class="st0" d="M61.5,4.8c0-2.7,2-4.8,4.6-4.8s4.7,2.2,4.7,4.8-2.1,4.9-4.7,4.9-4.6-2.2-4.6-4.9ZM62.1,15.1c0-1.6.6-2.9,4-2.9s4,1.2,4,3c0,5-.2,14.8-.4,20.2,0,2.3-.8,3.2-2.9,3.3-2.4.1-3.7-1.2-3.9-3.2-.2-3.6-.8-16.1-.8-20.4h0Z"/>
  <path class="st0" d="M75.1,19.1c-1.8,0-2.9-.8-2.9-3.3,0-2.2,1.2-3.3,2.7-3.5,1.2,0,2.4-.1,4-.1v-6.5c0-1.6.7-2.9,4.1-2.9s3.8,1.2,3.8,3v6.3c2.5,0,5,0,6.9,0s2.2,1.1,2.2,2.8c0,2.6-1.3,3.1-2.7,3.3-1.7.2-4,.4-6.4.5,0,3.7-.1,7.6-.1,11.4s.3,1.7,1.6,1.6c1.2,0,3-.1,4.2-.2.9,0,1.8.6,2,2.6.2,2.5-.9,3.1-1.8,3.4-1.6.6-3.9,1.3-6.1,1.3-4.5,0-6.8-2.1-7-6.2-.2-3.4-.3-8.5-.4-13.4h-3.8Z"/>
  <path class="st0" d="M98.1,36.3c0-2.6,2-4.6,4.6-4.6s4.6,2,4.6,4.6-2,4.6-4.6,4.6-4.6-2-4.6-4.6Z"/>
  <path class="st0" d="M120.5,38.2c-3,0-4.8,0-6.2-.2-2.2-.3-3.5-1.7-3.6-4-.2-9.5,0-18.8.2-28.6,0-1.2.5-1.9,1.3-2,3.2-.3,7.6-.5,11-.3,9.9.6,16.1,6.5,15.9,17.5-.2,11.8-9,17.6-18.7,17.6h0ZM118.3,31c1.1.1,2.2.1,2.9.1,5.7-.4,10.3-4.1,10.3-10.8s-3.4-9.8-8.5-10.1c-1.4-.1-2.6,0-4.3.1,0,3.3-.4,19.8-.4,20.6Z"/>
  <path class="st0" d="M147.9,31.2c-.4,1.5-1.4,3.8-1.8,4.8-.9,2.3-2.3,2.8-4.3,2.5-2.2-.4-2.7-1.7-2.3-3.7,2.2-8.5,6.4-23,9-30.4.3-.8,1.1-1.6,2-1.7,2-.4,5.4-.4,7.3-.1,1,.1,1.7.9,2,2,2.6,7.9,6.2,21.3,8.4,29.9.5,2,0,3.5-2.1,4.1-2.3.6-3.1.6-4.1-2-.5-1.4-1.6-4.3-2.3-6-4,.3-7.9.5-11.9.7h0ZM154,9.3c-1,4.3-2.8,10.8-4.2,15.5,2.5-.1,5.8-.3,8.3-.4-1.3-4.7-3.2-11-4.1-15.1h0Z"/>
</svg>